<svg height="512" viewBox="0 0 64 64" width="512" xmlns="http://www.w3.org/2000/svg"><path d="m59 55h-2v-3a1 1 0 0 0 -2 0v3h-4v-3a1 1 0 0 0 -2 0v3h-2a1 1 0 0 0 0 2h12a1 1 0 0 0 0-2z" fill="#93999a"/><g fill="#fcbc04"><path d="m43 29a1 1 0 0 1 -1-1v-3a1 1 0 0 1 1-1h9a1 1 0 0 1 0 2h-8v2a1 1 0 0 1 -1 1z"/><path d="m60 26h-4a1 1 0 0 1 0-2h4a1 1 0 0 1 0 2z"/><path d="m54 24a1 1 0 0 1 -1-1v-4a1 1 0 0 1 2 0v4a1 1 0 0 1 -1 1z"/><path d="m45 49h-11a1 1 0 0 1 -1-1v-10a1 1 0 0 1 2 0v9h10a1 1 0 0 1 0 2z"/><path d="m30 25a1 1 0 0 1 -1-1v-9h-8a1 1 0 0 1 0-2h9a1 1 0 0 1 1 1v10a1 1 0 0 1 -1 1z"/><path d="m12 44a1 1 0 0 1 -1-1v-9a1 1 0 0 1 1-1h8a1 1 0 0 1 0 2h-7v8a1 1 0 0 1 -1 1z"/></g><path d="m7 3h14v20h-14z" fill="#4891d3"/><path d="m3 7h14v20h-14z" fill="#57b7eb"/><path d="m6 15v-8h-3v20h14v-3h-2a9 9 0 0 1 -9-9z" fill="#4891d3"/><path d="m7 5h12v2h-12z" fill="#2d72bc"/><path d="m17 7h2v16h-2z" fill="#2d72bc"/><path d="m45 43h16v10h-16z" fill="#4891d3"/><path d="m50 43 11 10v-10z" fill="#57b7eb"/><path d="m41 27a5.91 5.91 0 0 0 -1.9.31 8 8 0 0 0 -14.84 1.69 2.3 2.3 0 0 0 -.26 0 5 5 0 1 0 3.47 8.59 8 8 0 0 0 9.4-.25 5.94 5.94 0 0 0 4.13 1.66 6 6 0 0 0 0-12z" fill="#d0d8da"/><path d="m43 36a5.94 5.94 0 0 1 -4.13-1.66 8 8 0 0 1 -9.4.25 5 5 0 0 1 -8.47-3.59 5.5 5.5 0 0 1 .12-1.08 5 5 0 1 0 6.35 7.67 8 8 0 0 0 9.4-.25 5.94 5.94 0 0 0 4.13 1.66 6 6 0 0 0 5.76-4.33 6 6 0 0 1 -3.76 1.33z" fill="#93999a"/><path d="m45 3h16v8h-16z" fill="#d0d8da"/><path d="m45 11h16v8h-16z" fill="#d0d8da"/><circle cx="54" cy="25" fill="#d0d8da" r="2"/><path d="m49 3h-4v8h16v-3h-7a5 5 0 0 1 -5-5z" fill="#93999a"/><path d="m49 11h-4v8h16v-3h-7a5 5 0 0 1 -5-5z" fill="#93999a"/><path d="m55 26a2 2 0 0 1 -2-2 2 2 0 0 1 .18-.82 2 2 0 1 0 2.64 2.64 2 2 0 0 1 -.82.18z" fill="#93999a"/><path d="m3 43h18v18h-18z" fill="#c4f236"/><path d="m17 50h-3v-3h-4v3h-3v4h3v3h4v-3h3z" fill="#f9e109"/><path d="m7 45v-2h-4v18h18v-4h-2a12 12 0 0 1 -12-12z" fill="#a1d51c"/><path d="m10 57h4v-1.1a12.09 12.09 0 0 1 -5.9-5.9h-1.1v4h3z" fill="#fcbc04"/><path d="m10 16a1 1 0 0 1 -1-1v-4a1 1 0 0 1 2 0v4a1 1 0 0 1 -1 1z" fill="#fcbc04"/><path d="m12 14h-4a1 1 0 0 1 0-2h4a1 1 0 0 1 0 2z" fill="#fcbc04"/><path d="m13 20h-6a1 1 0 0 1 0-2h6a1 1 0 0 1 0 2z" fill="#fcbc04"/><path d="m13 24h-6a1 1 0 0 1 0-2h6a1 1 0 0 1 0 2z" fill="#fcbc04"/><circle cx="49" cy="15" fill="#2d72bc" r="1"/><circle cx="53" cy="15" fill="#4891d3" r="1"/><circle cx="57" cy="15" fill="#4891d3" r="1"/><circle cx="49" cy="7" fill="#2d72bc" r="1"/><circle cx="53" cy="7" fill="#4891d3" r="1"/><circle cx="57" cy="7" fill="#4891d3" r="1"/><path d="m54 61h-10a1 1 0 0 1 0-2h10a1 1 0 0 1 0 2z" fill="#93999a"/><path d="m60 61h-2a1 1 0 0 1 0-2h2a1 1 0 0 1 0 2z" fill="#93999a"/><path d="m45 10h16v1h-16z" fill="#656b76"/><path d="m45 18h16v1h-16z" fill="#656b76"/></svg>