<svg height="464pt" viewBox="0 -40 464 464" width="464pt" xmlns="http://www.w3.org/2000/svg"><path d="m424 0h-384c-8.800781 0-16 7.199219-16 16v264h416v-264c0-8.800781-7.199219-16-16-16zm0 0" fill="#676b7f"/><path d="m464 280h-464v16c0 8.800781 7.199219 16 16 16h432c8.800781 0 16-7.199219 16-16zm0 0" fill="#4a4a56"/><path d="m56 32h352v248h-352zm0 0" fill="#d6d7d8"/><path d="m96 108h16v44h-16zm0 0" fill="#52b0c6"/><path d="m128 91.199219h16v60.800781h-16zm0 0" fill="#52b0c6"/><path d="m160 73.601562h16v78.398438h-16zm0 0" fill="#52b0c6"/><path d="m192 56h16v96h-16zm0 0" fill="#52b0c6"/><g fill="#b4b4b5"><path d="m80 176h64v16h-64zm0 0"/><path d="m80 208h104v16h-104zm0 0"/><path d="m80 240h104v16h-104zm0 0"/><path d="m200 208h16v16h-16zm0 0"/><path d="m200 240h16v16h-16zm0 0"/></g><path d="m312 64c-35.199219 0-64 28.800781-64 64h128c0-35.199219-28.800781-64-64-64zm0 0" fill="#e57e73"/><path d="m306.460938 114.222656 23.757812-23.757812 11.3125 11.3125-23.757812 23.761718zm0 0" fill="#e9e9e9"/><path d="m319.199219 374.398438 16.800781 9.601562 16.800781-9.601562c48.800781-28.796876 79.199219-81.597657 79.199219-138.398438v-60l-96-32-96 32v60c0 56.800781 30.398438 109.601562 79.199219 138.398438zm0 0" fill="#239172"/><path d="m332 359.199219-8-13.597657c44.800781-26.402343 68-67.203124 68-123.203124v-14.398438h16v13.601562c0 62.398438-25.601562 108-76 137.597657zm0 0" fill="#2ab793"/><path d="m80 144h144v16h-144zm0 0" fill="#52b0c6"/></svg>