<svg height="472pt" viewBox="-44 0 472 472" width="472pt" xmlns="http://www.w3.org/2000/svg"><path d="m192 0 192 80v73.601562c0 128-68 246.398438-178.398438 311.199219l-13.601562 7.199219-13.601562-8c-110.398438-64-178.398438-182.398438-178.398438-310.398438v-73.601562zm0 0" fill="#239172"/><path d="m320 232c0 70.691406-57.308594 128-128 128s-128-57.308594-128-128 57.308594-128 128-128 128 57.308594 128 128zm0 0" fill="#2ab793"/><path d="m192 360c29.601562 0 58.398438-10.398438 81.601562-28.800781l-13.601562-72c-2.398438-11.199219-10.398438-20.800781-21.601562-24.800781l-22.398438-8c-4-1.597657-6.398438-5.597657-4.800781-10.398438 0 0 0 0 0-.800781l12-29.597657c.800781-1.601562.800781-4 .800781-5.601562v-4c0-17.601562-14.398438-32-32-32s-32 14.398438-32 32v4.800781c0 2.398438 0 4 .800781 5.597657l12 29.601562c1.597657 4 0 8.800781-4.800781 10.398438 0 0 0 0-.800781 0l-21.597657 7.203124c-11.203124 4-19.203124 12.796876-21.601562 24.796876l-13.601562 72c23.203124 19.203124 52 29.601562 81.601562 29.601562zm0 0" fill="#fff"/></svg>