<svg height="472pt" viewBox="-52 0 472 472" width="472pt" xmlns="http://www.w3.org/2000/svg"><path d="m0 376v64c0 17.601562 14.398438 32 32 32h304c17.601562 0 32-14.398438 32-32v-64zm0 0" fill="#b4b4b5"/><path d="m32 40h304c17.601562 0 32 14.398438 32 32v304c0 17.601562-14.398438 32-32 32h-304c-17.601562 0-32-14.398438-32-32v-304c0-17.601562 14.398438-32 32-32zm0 0" fill="#e9e9e9"/><path d="m368 136h-368v-64c0-17.601562 14.398438-32 32-32h304c17.601562 0 32 14.398438 32 32zm0 0" fill="#239172"/><path d="m312 0h16v80h-16zm0 0" fill="#d6d7d8"/><path d="m336 88c0 8.835938-7.164062 16-16 16s-16-7.164062-16-16 7.164062-16 16-16 16 7.164062 16 16zm0 0" fill="#d6d7d8"/><path d="m24 432h320v16h-320zm0 0" fill="#d6d7d8"/><path d="m168 360h-96c-17.601562 0-32-14.398438-32-32v-21.601562c0-14.398438 9.601562-27.199219 23.199219-30.398438l76.800781-22.398438c7.199219-1.601562 11.199219-8 12-15.203124v-22.398438c0-8.800781-7.199219-16-16-16h-64c-8.800781 0-16 7.199219-16 16v24h-16v-24c0-17.601562 14.398438-32 32-32h64c17.601562 0 32 14.398438 32 32v21.601562c0 14.398438-9.601562 27.199219-23.199219 30.398438l-76.800781 22.398438c-7.199219 1.601562-11.199219 8-12 15.203124v22.398438c0 8.800781 7.199219 16 16 16h96zm0 0" fill="#ceb195"/><path d="m296 360h-64c-17.601562 0-32-14.398438-32-32v-24h16v24c0 8.800781 7.199219 16 16 16h64c8.800781 0 16-7.199219 16-16v-51.199219c0-8-5.601562-14.402343-13.601562-16l-70.398438-10.402343c-16-2.398438-27.199219-16-27.199219-32v-2.398438c0-17.601562 14.398438-32 32-32h96v16h-96.800781c-8.800781 0-16 7.199219-16 16v3.199219c0 8 5.601562 14.402343 13.601562 16l70.398438 10.402343c16 2.398438 27.199219 16 27.199219 32v50.398438c.800781 17.601562-13.597657 32-31.199219 32zm0 0" fill="#ceb195"/><g fill="#fff"><path d="m144 72h16v32h-16zm0 0"/><path d="m176 72h16v32h-16zm0 0"/><path d="m208 72h16v32h-16zm0 0"/><path d="m240 72h16v32h-16zm0 0"/><path d="m112 72h16v32h-16zm0 0"/></g><path d="m40 0h16v80h-16zm0 0" fill="#d6d7d8"/><path d="m64 88c0 8.835938-7.164062 16-16 16s-16-7.164062-16-16 7.164062-16 16-16 16 7.164062 16 16zm0 0" fill="#d6d7d8"/></svg>