<svg height="464pt" viewBox="0 -48 464 464" width="464pt" xmlns="http://www.w3.org/2000/svg"><path d="m416 0h-368c-8.800781 0-16 7.199219-16 16v264h400v-264c0-8.800781-7.199219-16-16-16zm0 0" fill="#676b7f"/><path d="m64 32h336v248h-336zm0 0" fill="#d6d7d8"/><path d="m0 280v16c0 8.800781 7.199219 16 16 16h432c8.800781 0 16-7.199219 16-16v-16zm0 0" fill="#4a4a56"/><g fill="#ddad6f"><path d="m200 248h-48v-16h32v-32h16zm0 0"/><path d="m185.601562 242.398438c-48-27.199219-64-88.796876-36.800781-136 27.199219-47.199219 88.800781-64 136-36.796876 15.199219 8.796876 28 21.597657 36.800781 36.796876l-13.601562 8c-23.199219-40-74.398438-53.597657-114.398438-30.398438s-53.601562 74.398438-30.402343 114.398438c7.199219 12.800781 17.601562 23.203124 30.402343 30.402343zm0 0"/><path d="m271.199219 124.800781c-4-5.601562-8.800781-10.402343-14.398438-13.601562l8-13.597657c8 4.796876 14.398438 11.199219 19.199219 18.398438zm0 0"/><path d="m218.398438 105.601562-4.796876-15.203124c8.796876-2.398438 18.398438-3.199219 27.199219-1.597657l-2.402343 16c-6.398438-1.601562-13.597657-.800781-20 .800781zm0 0"/><path d="m179.199219 188.800781c-20-28.800781-12.800781-68.800781 16-88.800781l8.800781 12.800781c-21.601562 15.199219-27.199219 44.800781-12 67.199219zm0 0"/></g><path d="m224 288v64c0 8.800781 32 16 72 16s72-7.199219 72-16v-64zm0 0" fill="#2ab793"/><path d="m224 224v64c0 8.800781 32 16 72 16s72-7.199219 72-16v-64zm0 0" fill="#239172"/><path d="m224 160v64c0 8.800781 32 16 72 16s72-7.199219 72-16v-64zm0 0" fill="#2ab793"/><path d="m368 160c0-8.835938-32.234375-16-72-16s-72 7.164062-72 16 32.234375 16 72 16 72-7.164062 72-16zm0 0" fill="#239172"/><path d="m304 304v51.199219c0 7.199219 24.800781 12.800781 56 12.800781s56-5.601562 56-12.800781v-51.199219zm0 0" fill="#279372"/><path d="m304 264v51.199219c0 7.199219 24.800781 12.800781 56 12.800781s56-5.601562 56-12.800781v-51.199219zm0 0" fill="#208465"/><path d="m304 224v43.199219c0 7.199219 24.800781 12.800781 56 12.800781s56-5.601562 56-12.800781v-43.199219zm0 0" fill="#279372"/><path d="m416 224c0-8.835938-25.070312-16-56-16s-56 7.164062-56 16 25.070312 16 56 16 56-7.164062 56-16zm0 0" fill="#208465"/></svg>