<svg id="Capa_1" enable-background="new 0 0 512 512" height="512" viewBox="0 0 512 512" width="512" xmlns="http://www.w3.org/2000/svg"><g><g><path d="m458.871 81.984-193.446-80.109c-6.035-2.499-12.816-2.499-18.851 0l-193.445 80.109c-8.008 3.316-13.672 10.594-14.947 19.168-8.558 57.582-24.582 279.026 205.856 407.737 7.426 4.148 16.497 4.148 23.923 0 230.439-128.711 214.415-350.155 205.857-407.738-1.275-8.573-6.939-15.851-14.947-19.167z" fill="#8d9ca8"/><path d="m267.958 508.884c-4.031 2.253-8.537 3.287-13.013 3.09 222.787-129.258 207.015-346.608 198.55-403.578-1.271-8.568-6.935-15.845-14.946-19.162l-193.443-80.113c-3.752-1.55-7.783-2.14-11.752-1.778l13.219-5.468c6.036-2.501 12.816-2.501 18.852 0l193.443 80.112c8.01 3.307 13.674 10.594 14.945 19.162 8.56 57.582 24.591 279.025-205.855 407.735z" fill="#7a8c98"/><path d="m418.94 118.264-155.37-63.407c-4.847-1.978-10.293-1.978-15.141 0l-155.369 63.407c-6.432 2.625-10.981 8.385-12.005 15.171-6.874 45.578-19.744 220.853 165.337 322.73 5.964 3.283 13.25 3.283 19.214 0 185.081-101.876 172.211-277.152 165.337-322.73-1.022-6.786-5.571-12.546-12.003-15.171z" fill="#c5d3dd"/><path d="m265.612 456.161c-5.974 3.287-13.25 3.287-19.224 0-.3-.165-.599-.331-.899-.506 184.296-105.042 171.449-285.224 164.586-332.128-.62-4.248-2.553-8.114-5.416-11.09l14.284 5.829c6.429 2.625 10.977 8.382 12 15.173 6.872 45.57 19.74 220.854-165.331 322.722z" fill="#b6c4cf"/></g><g><path d="m330.272 228.579h-34.382c-6.768 0-12.254-5.444-12.254-12.159v-34.115c0-6.715-5.486-12.159-12.254-12.159h-30.762c-6.768 0-12.254 5.444-12.254 12.159v34.115c0 6.715-5.486 12.159-12.254 12.159h-34.382c-6.768 0-12.254 5.444-12.254 12.159v30.523c0 6.715 5.486 12.159 12.254 12.159h34.382c6.768 0 12.254 5.444 12.254 12.159v34.115c0 6.715 5.486 12.159 12.254 12.159h30.762c6.768 0 12.254-5.444 12.254-12.159v-34.115c0-6.715 5.486-12.159 12.254-12.159h34.382c6.768 0 12.254-5.444 12.254-12.159v-30.523c0-6.715-5.487-12.159-12.254-12.159z" fill="#ee6161"/><g fill="#e94444"><path d="m273.459 283.419h22.433c-6.768 0-12.264 5.447-12.264 12.167v34.102c0 6.719-5.48 12.167-12.248 12.167h-20.574c-.31 0-.62-.016-.93-.049 6.328-.457 11.319-5.708 11.319-12.118v-34.102c-.001-6.72 5.496-12.167 12.264-12.167z"/><path d="m295.892 228.571h-22.433c-6.768 0-12.264-5.431-12.264-12.15v-34.119c0-6.41-4.991-11.645-11.319-12.101.31-.033.62-.049.93-.049h20.574c6.768 0 12.248 5.431 12.248 12.15v34.119c0 6.719 5.496 12.15 12.264 12.15z"/><path d="m342.52 240.738v30.531c0 6.703-5.48 12.15-12.248 12.15h-22.433c6.768 0 12.248-5.447 12.248-12.15v-30.531c0-6.719-5.48-12.167-12.248-12.167h22.433c6.768 0 12.248 5.448 12.248 12.167z"/></g></g></g></svg>