<svg height="472pt" viewBox="0 -3 472 471" width="472pt" xmlns="http://www.w3.org/2000/svg"><path d="m112 .5h256c8.800781 0 16 7.199219 16 16v432c0 8.800781-7.199219 16-16 16h-256c-8.800781 0-16-7.199219-16-16v-432c0-8.800781 7.199219-16 16-16zm0 0" fill="#676b7f"/><path d="m136 208.5h48c4.800781 0 8 3.199219 8 8v48c0 4.800781-3.199219 8-8 8h-48c-4.800781 0-8-3.199219-8-8v-48c0-4.800781 3.199219-8 8-8zm0 0" fill="#239172"/><path d="m146.542969 242.640625 40.160156-40.160156 11.316406 11.3125-40.164062 40.164062zm0 0" fill="#ddad6f"/><path d="m136 304.5h48c4.800781 0 8 3.199219 8 8v48c0 4.800781-3.199219 8-8 8h-48c-4.800781 0-8-3.199219-8-8v-48c0-4.800781 3.199219-8 8-8zm0 0" fill="#239172"/><path d="m146.542969 338.640625 40.160156-40.164063 11.316406 11.316407-40.164062 40.160156zm0 0" fill="#ddad6f"/><path d="m96 416.5h288v32c0 8.800781-7.199219 16-16 16h-256c-8.800781 0-16-7.199219-16-16zm0 0" fill="#4a4a56"/><path d="m384 32.5h-288v-16c0-8.800781 7.199219-16 16-16h256c8.800781 0 16 7.199219 16 16zm0 0" fill="#4a4a56"/><g fill="#878b9b"><path d="m184 56.5h112v16h-112zm0 0"/><path d="m216 104.5h144v16h-144zm0 0"/><path d="m216 136.5h80v16h-80zm0 0"/><path d="m216 200.5h144v16h-144zm0 0"/><path d="m216 232.5h56v16h-56zm0 0"/></g><path d="m40 104.5h16c4.800781 0 8 3.199219 8 8v264l-16 16-16-16v-264c0-4.800781 3.199219-8 8-8zm0 0" fill="#f4c167"/><path d="m32 352.5h32v24l-16 16-16-16zm0 0" fill="#ddad6f"/><path d="m64 136.5h-32v-24c0-4.800781 3.199219-8 8-8h16c4.800781 0 8 3.199219 8 8zm0 0" fill="#ddad6f"/><path d="m0 416.5h64v16h-64zm0 0" fill="#878b9b"/><path d="m136 112.5h48c4.800781 0 8 3.199219 8 8v48c0 4.800781-3.199219 8-8 8h-48c-4.800781 0-8-3.199219-8-8v-48c0-4.800781 3.199219-8 8-8zm0 0" fill="#239172"/><path d="m146.542969 146.640625 40.164062-40.160156 11.3125 11.3125-40.164062 40.164062zm0 0" fill="#ddad6f"/><path d="m472 352.5c0 61.855469-50.144531 112-112 112s-112-50.144531-112-112 50.144531-112 112-112 112 50.144531 112 112zm0 0" fill="#239172"/><path d="m360 464.5c33.601562 0 65.601562-15.199219 87.199219-41.601562l-28-49.597657c-1.597657-3.199219-4.800781-5.601562-8-7.199219l-27.199219-10.402343c-4-1.597657-6.398438-6.398438-4.800781-10.398438v-.800781l12-24v-8c0-17.601562-14.398438-32-32-32-17.597657 0-32 14.398438-32 32v8l12 24c1.601562 4 0 8.800781-3.199219 10.398438h-.800781l-26.398438 10.402343c-3.199219 1.597657-6.402343 4-8 7.199219l-28 49.601562c21.597657 27.199219 53.597657 42.398438 87.199219 42.398438zm0 0" fill="#ddad6f"/></svg>