<svg id="Capa_1" enable-background="new 0 0 512 512" height="512" viewBox="0 0 512 512" width="512" xmlns="http://www.w3.org/2000/svg"><g><path d="m256 512c-71.197 0-135.606-29.064-182.009-75.975 5.923-18.602.973-38.955-12.832-52.76l-48.962-48.962c-7.92-24.68-12.197-50.992-12.197-78.303 0-141.385 114.615-256 256-256 75.73 0 143.779 32.883 190.649 85.149.006.007.004.023-.007.049-7.404 16.774-6.966 35.865 5.444 49.363 22.408 24.371 51.618 56.497 52.254 59.037 5.003 19.973 7.66 40.877 7.66 62.402 0 141.385-114.615 256-256 256z" fill="#644189"/><path d="m400.017 133.727 47.549-47.549c26.847 30.262 46.633 66.931 56.775 107.424l-22.225 22.225zm-387.986 200.058c12.409 38.955 33.89 73.862 61.96 102.239l53.908-53.907-82.099-82.1z" fill="#ffbeaa"/><path d="m39.484 306.333 22.28 22.28-37.12 37.12c-4.889-10.29-9.112-20.958-12.613-31.948zm407.165-221.184-60.054 60.054 22.912 22.912 57.341-57.341c-6.191-8.973-12.941-17.531-20.199-25.625z" fill="#faa68e"/><path d="m351.39 220.515-126.62 126.62c-18.09 18.09-42.055 29.113-67.564 31.075l-42.57 3.275-75.784-75.784 6.011-18.032v-94.043c0-4.933 1.992-9.4 5.216-12.642.444-.567 72.695-72.882 72.695-72.882 7.001-7.001 18.353-7.001 25.354 0 7.001 7.001 7.001 18.353 0 25.354l-53.381 53.381c-1.662 1.662-2.597 3.918-2.597 6.269 0 7.898 9.549 11.854 15.134 6.269l31.117-31.117c.444-.566.926-1.112 1.448-1.634l110.4-110.4c7.001-7.001 18.353-7.001 25.354 0s7.001 18.353 0 25.354l-76.837 76.837c-2.881 2.881-2.881 7.552 0 10.433s7.552 2.881 10.433 0l95.479-95.479c6.874-6.874 18.074-7.383 25.187-.758 7.469 6.955 7.626 18.654.471 25.809l-100.996 100.998 10.433 10.433 82.053-82.053c7.001-7.001 18.353-7.001 25.354 0s7.001 18.353 0 25.354l-82.053 82.053 10.433 10.433 50.172-50.172c6.874-6.874 18.074-7.383 25.187-.758 7.469 6.955 7.626 18.652.471 25.807z" fill="#a88ac8"/><path d="m38.853 305.701 6.011-18.032v-94.043c0-4.933 1.992-9.4 5.216-12.642.444-.567 72.695-72.882 72.695-72.882 7.001-7.001 18.353-7.001 25.354 0 1.259 1.259 2.292 2.659 3.098 4.148-.838.589-1.637 1.257-2.386 2.007 0 0-72.251 72.315-72.695 72.882-3.224 3.242-5.216 7.709-5.216 12.642v94.043l-6.011 18.032zm86.835 23.682c-2.616 2.616-6.857 2.616-9.473 0s-2.616-6.857 0-9.473c21.765-21.765 21.764-57.178 0-78.942-2.616-2.616-2.616-6.857 0-9.473s6.857-2.616 9.473 0c26.988 26.988 26.988 70.901 0 97.888z" fill="#9773bd"/><path d="m118.938 409.107-100.129-100.129c-6.35-6.35-5.822-17.173 1.179-24.175 7.001-7.001 17.825-7.529 24.175-1.179l100.129 100.129c6.35 6.35 5.822 17.173-1.179 24.175-7.002 7.001-17.825 7.529-24.175 1.179z" fill="#a88ac8"/><path d="m148.129 133.457-20.548 20.548c-7.001 7.001-18.353 7.001-25.354 0-7.001-7.001-7.001-18.353 0-25.354l20.548-20.548c7.001-7.001 18.353-7.001 25.354 0 7.002 7.001 7.002 18.352 0 25.354zm127.805-77.561c-7.001-7.001-18.353-7.001-25.354 0l-20.548 20.548c-7.001 7.001-7.001 18.353 0 25.354 7.001 7.001 18.353 7.001 25.354 0l20.548-20.548c7.002-7.002 7.002-18.353 0-25.354zm54.873 16.701c-7.001-7.001-18.353-7.001-25.354 0l-20.548 20.548c-7.001 7.001-7.001 18.353 0 25.354 7.001 7.001 18.353 7.001 25.354 0l20.548-20.548c7.001-7.001 7.001-18.353 0-25.354zm-187.695 335.331c7.001-7.001 7.53-17.825 1.179-24.175l-67.322-67.323c-6.35-6.35-17.173-5.822-24.175 1.179-7.001 7.001-7.529 17.825-1.179 24.175l67.323 67.323c6.35 6.35 17.173 5.822 24.174-1.179z" fill="#b9a1d3"/><path d="m447.135 312.698-126.62 126.62c-7.001 7.001-18.353 7.001-25.354 0-7.001-7.001-7.001-18.353 0-25.354l45.26-45.26c2.881-2.881 2.881-7.552 0-10.433s-7.552-2.881-10.433 0l-76.837 76.837c-7.001 7.001-18.353 7.001-25.354 0s-7.001-18.353 0-25.354l76.837-76.837c2.881-2.881 2.881-7.552 0-10.433s-7.552-2.881-10.433 0l-95.783 95.783c-7.001 7.001-18.353 7.001-25.354 0s-7.001-18.353 0-25.354l95.783-95.783c2.881-2.881 2.881-7.552 0-10.433s-7.552-2.881-10.433 0l-76.837 76.837c-7.001 7.001-18.353 7.001-25.354 0s-7.001-18.353 0-25.354l110.4-110.401c.522-.522 1.068-1.004 1.634-1.448l42.549-42.549c5.585-5.585 1.629-15.134-6.269-15.134-2.351 0-4.606.934-6.269 2.597l-64.509 64.509c-6.874 6.874-18.074 7.383-25.187.758-7.469-6.956-7.626-18.654-.471-25.809 0 0 72.315-72.251 72.882-72.695 3.242-3.224 7.709-5.216 12.642-5.216h88.445c.246 0 .491.006.734.015l96.613 96.613-1.209 15.715c-1.96 25.507-12.982 49.472-31.073 67.563z" fill="#c2eaf2"/><path d="m406.989 289.691c15.695-15.695 32.66-24.178 37.892-18.946s-3.251 22.197-18.946 37.892-32.66 24.178-37.892 18.946 3.251-22.197 18.946-37.892z" fill="#fff5f5"/><path d="m170 250c-4.142 0-7.5-3.358-7.5-7.5v-5h-5c-4.142 0-7.5-3.358-7.5-7.5s3.358-7.5 7.5-7.5h5v-5c0-4.142 3.358-7.5 7.5-7.5s7.5 3.358 7.5 7.5v5h5c4.142 0 7.5 3.358 7.5 7.5 0 4.142-3.358 7.5-7.5 7.5h-5v5c0 4.142-3.358 7.5-7.5 7.5z" fill="#def4f8"/><path d="m212.338 239.184c-1.339-.704-2.606-1.594-3.765-2.673-7.469-6.956-7.626-18.654-.471-25.809 0 0 72.315-72.251 72.882-72.695 3.242-3.224 7.709-5.216 12.642-5.216h88.445c.246 0 .491.006.734.015l23.454 27.381-108.02.695c-4.933 0-9.401 1.993-12.642 5.216-.567.445-72.882 72.695-72.882 72.695-.128.129-.253.259-.377.391z" fill="#a6e0ec"/><path d="m192.5 312.5c0 4.142-3.358 7.5-7.5 7.5s-7.5-3.358-7.5-7.5v-10h-10c-4.142 0-7.5-3.358-7.5-7.5 0-4.142 3.358-7.5 7.5-7.5h10v-10c0-4.142 3.358-7.5 7.5-7.5 4.142 0 7.5 3.358 7.5 7.5v10h10c4.142 0 7.5 3.358 7.5 7.5s-3.358 7.5-7.5 7.5h-10z" fill="#fff5f5"/><path d="m494.484 244.484c-7.001 7.001-17.825 7.529-24.175 1.18l-100.129-100.13c-6.35-6.35-5.822-17.173 1.179-24.175 7.001-7.001 17.825-7.529 24.175-1.179l100.129 100.129c6.35 6.35 5.822 17.173-1.179 24.175z" fill="#c2eaf2"/><path d="m470.309 245.663-73.259-73.259c-6.35-6.35-5.822-17.173 1.179-24.175 7.001-7.001 17.825-7.529 24.175-1.179l73.259 73.259c6.35 6.35 5.822 17.173-1.179 24.175-7.002 7.001-17.825 7.529-24.175 1.179z" fill="#def4f8"/><path d="m260.044 108.308v14.995c0 4.142-3.358 7.5-7.5 7.5s-7.5-3.358-7.5-7.5v-14.995c0-4.142 3.358-7.5 7.5-7.5s7.5 3.358 7.5 7.5zm-33.06 65.419c0-4.142-3.358-7.5-7.5-7.5h-14.169c-4.142 0-7.5 3.358-7.5 7.5s3.358 7.5 7.5 7.5h14.169c4.142 0 7.5-3.358 7.5-7.5zm-26.972-57.548c-2.929 2.929-2.929 7.678 0 10.607l23.458 23.458c2.929 2.929 7.678 2.929 10.607 0s2.929-7.678 0-10.607l-23.458-23.458c-2.93-2.929-7.678-2.929-10.607 0zm240.215 271.206c0 4.142-3.358 7.5-7.5 7.5h-14.995c-4.142 0-7.5-3.358-7.5-7.5s3.358-7.5 7.5-7.5h14.995c4.142 0 7.5 3.358 7.5 7.5zm-80.419 33.06v14.169c0 4.142 3.358 7.5 7.5 7.5s7.5-3.358 7.5-7.5v-14.169c0-4.142-3.358-7.5-7.5-7.5s-7.5 3.358-7.5 7.5zm65.048 8.866-23.458-23.458c-2.929-2.929-7.678-2.929-10.607 0s-2.929 7.678 0 10.607l23.458 23.458c2.929 2.929 7.678 2.929 10.607 0s2.929-7.678 0-10.607z" fill="#fff5f5"/></g></svg>