<svg id="Capa_1" enable-background="new 0 0 512 512" height="512" viewBox="0 0 512 512" width="512" xmlns="http://www.w3.org/2000/svg"><g><path d="m511.99 491.39v20.61h-73.14l-182.85-15-182.85 15h-73.14v-20.61c0-44.68 30.8-82.74 73.14-92.93h365.7c42.34 10.19 73.14 48.25 73.14 92.93z" fill="#bde3ed"/><path d="m511.99 491.39v20.61h-73.14l-182.85-15v-98.54h182.85c42.34 10.19 73.14 48.25 73.14 92.93z" fill="#8fc3d9"/><path d="m438.85 398.46v113.54h-116.52-.22-132.22-.22-116.52v-113.54c4.27-1.04 8.65-1.78 13.14-2.22l60-5.87 109.71 17.57 109.71-17.57 60 5.87c4.49.44 8.87 1.18 13.14 2.22z" fill="#61b7ff"/><path d="m438.85 398.46v113.54h-116.52-66.33v-104.06l109.71-17.57 60 5.87c4.49.44 8.87 1.18 13.14 2.22z" fill="#4274d1"/><path d="m329.14 314.07v82.18l-73.14 42.78-73.14-42.78v-82.18z" fill="#febda6"/><path d="m329.14 314.07v82.18l-73.14 42.78v-124.96z" fill="#ffac94"/><path d="m392.65 136.65v29.36h-273.3v-29.36c0-75.47 61.18-136.65 136.65-136.65s136.65 61.18 136.65 136.65z" fill="#5c5655"/><path d="m392.65 136.65v29.36h-136.65v-166.01c75.47 0 136.65 61.18 136.65 136.65z" fill="#363331"/><path d="m178.061 250.689h-36.313c-25.684 0-46.506-20.821-46.506-46.506 0-25.684 20.821-46.506 46.506-46.506h36.294z" fill="#febda6"/><path d="m333.958 157.677h36.294c25.685 0 46.506 20.821 46.506 46.506 0 25.684-20.821 46.506-46.506 46.506h-36.294z" fill="#ffac94"/><path d="m256 439.03-66.33 72.97-43.38-121.63 36.57-3.58z" fill="#edf9ff"/><path d="m365.71 390.37-43.38 121.63-66.33-72.97 73.14-52.24z" fill="#c0e1f0"/><g><path d="m349.97 141.6v109.09l-93.97 15.79-93.97-15.79v-109.09c0-8.8 3.57-16.78 9.34-22.55s13.75-9.34 22.55-9.34l.44.85c12.68 24.68 36.63 36.98 60.57 36.98.36 0 .71 0 1.07-.02 23.9-.36 47.63-12.99 59.95-37.81h2.13c17.61 0 31.89 14.28 31.89 31.89z" fill="#ffcdc0"/></g><path d="m349.97 141.6v109.09l-93.97 15.79v-118.96c23.9-.36 47.63-12.99 59.95-37.81h2.13c17.61 0 31.89 14.28 31.89 31.89z" fill="#febda6"/><path d="m309.496 291.164s-29.729 60.086-53.496 60.086c-25.95 0-49.44-11.2-66.45-29.3-17-18.1-27.52-43.11-27.52-70.73v-.53h37.79c12.66 0 24.89-4.52 34.51-12.74l21.67-18.52z" fill="#edf9ff"/><path d="m349.97 250.69v.53c0 55.24-42.07 100.03-93.97 100.03v-131.82l21.67 18.52c9.62 8.22 21.85 12.74 34.51 12.74z" fill="#c0e1f0"/></g></svg>