<?xml version="1.0" encoding="utf-8"?><svg xmlns="http://www.w3.org/2000/svg" xmlns:xlink="http://www.w3.org/1999/xlink" width="1280" height="647" preserveAspectRatio="xMidYMid" viewBox="0 0 1280 647" style="z-index:1;margin-right:-2px;display:block;background-repeat-y:initial;background-repeat-x:initial;background-color:rgb(241, 242, 243);animation-play-state:paused" ><g transform="" style="animation-play-state:paused" ><linearGradient id="lg-0.23203515353731508" x1="0" x2="1" y1="0" y2="0" style="animation-play-state:paused" ><stop stop-color="#a7a2a9" offset="0" style="animation-play-state:paused" ></stop>

  
<stop stop-color="#a7a2a9" offset="1" style="animation-play-state:paused" ></stop></linearGradient>
<path fill="url(#lg-0.23203515353731508)" opacity="0.4" d="M 0 0 L 0 530.562 Q 91.4286 447.927 182.857 435.396 T 365.714 474.443 T 548.571 467.175 T 731.429 447.717 T 914.286 420.305 T 1097.14 335.41 T 1280 387.341 L 1280 0 Z" style="opacity:0.4;animation-play-state:paused" ></path>
<path fill="url(#lg-0.23203515353731508)" opacity="0.4" d="M 0 0 L 0 511.161 Q 91.4286 491.081 182.857 463.532 T 365.714 486.295 T 548.571 454.809 T 731.429 462.726 T 914.286 314.562 T 1097.14 350.15 T 1280 323.878 L 1280 0 Z" style="opacity:0.4;animation-play-state:paused" ></path>
<path fill="url(#lg-0.23203515353731508)" opacity="0.4" d="M 0 0 L 0 432.792 Q 91.4286 460.002 182.857 429.477 T 365.714 454.515 T 548.571 413.776 T 731.429 436.432 T 914.286 419.748 T 1097.14 355.87 T 1280 281.583 L 1280 0 Z" style="opacity:0.4;animation-play-state:paused" ></path>
<path fill="url(#lg-0.23203515353731508)" opacity="0.4" d="M 0 0 L 0 515.954 Q 91.4286 551.31 182.857 521.903 T 365.714 427.788 T 548.571 460.313 T 731.429 368.445 T 914.286 414.243 T 1097.14 319.081 T 1280 297.727 L 1280 0 Z" style="opacity:0.4;animation-play-state:paused" ></path>
<path fill="url(#lg-0.23203515353731508)" opacity="0.4" d="M 0 0 L 0 506.721 Q 91.4286 536.507 182.857 512.724 T 365.714 472.759 T 548.571 363.88 T 731.429 391.589 T 914.286 381.246 T 1097.14 342.693 T 1280 359.053 L 1280 0 Z" style="opacity:0.4;animation-play-state:paused" ></path>
<path fill="url(#lg-0.23203515353731508)" opacity="0.4" d="M 0 0 L 0 485.148 Q 91.4286 413.641 182.857 383.14 T 365.714 415.419 T 548.571 330.712 T 731.429 380.185 T 914.286 454.586 T 1097.14 379.022 T 1280 321.182 L 1280 0 Z" style="opacity:0.4;animation-play-state:paused" ></path>
<path fill="url(#lg-0.23203515353731508)" opacity="0.4" d="M 0 0 L 0 523.598 Q 91.4286 498.967 182.857 477.078 T 365.714 418.057 T 548.571 486.845 T 731.429 425.359 T 914.286 332.461 T 1097.14 298.494 T 1280 263.282 L 1280 0 Z" style="opacity:0.4;animation-play-state:paused" ></path></g></svg>