<?xml version="1.0" encoding="utf-8"?><svg xmlns="http://www.w3.org/2000/svg" xmlns:xlink="http://www.w3.org/1999/xlink" width="1280" height="615" preserveAspectRatio="xMidYMid" viewBox="0 0 1280 615" style="z-index:1;margin-right:-2px;display:block;background-repeat-y:initial;background-repeat-x:initial;background-color:rgb(241, 242, 243);animation-play-state:paused" ><g transform="" style="animation-play-state:paused" ><linearGradient id="lg-0.9905061790678071" x1="0" x2="1" y1="0" y2="0" style="animation-play-state:paused" ><stop stop-color="#17b890" offset="0" style="animation-play-state:paused" ></stop>

  
<stop stop-color="#a7a2a9" offset="1" style="animation-play-state:paused" ></stop></linearGradient>
<path fill="url(#lg-0.9905061790678071)" opacity="0.4" d="M 0 0 L 0 544.584 Q 128 496.543 256 459.551 T 512 444.824 T 768 417.007 T 1024 304.927 T 1280 302.754 L 1280 0 Z" style="opacity:0.4;animation-play-state:paused" ></path>
<path fill="url(#lg-0.9905061790678071)" opacity="0.4" d="M 0 0 L 0 548.756 Q 128 490.404 256 476.492 T 512 450.91 T 768 390.588 T 1024 365.288 T 1280 292.012 L 1280 0 Z" style="opacity:0.4;animation-play-state:paused" ></path>
<path fill="url(#lg-0.9905061790678071)" opacity="0.4" d="M 0 0 L 0 594.777 Q 128 498.946 256 482.074 T 512 425.524 T 768 388.227 T 1024 370.059 T 1280 239.688 L 1280 0 Z" style="opacity:0.4;animation-play-state:paused" ></path>
<path fill="url(#lg-0.9905061790678071)" opacity="0.4" d="M 0 0 L 0 537.763 Q 128 506.855 256 486.654 T 512 488.996 T 768 361.744 T 1024 291.797 T 1280 239.775 L 1280 0 Z" style="opacity:0.4;animation-play-state:paused" ></path>
<path fill="url(#lg-0.9905061790678071)" opacity="0.4" d="M 0 0 L 0 573.554 Q 128 571.437 256 543.394 T 512 424.482 T 768 380.199 T 1024 300.419 T 1280 274.099 L 1280 0 Z" style="opacity:0.4;animation-play-state:paused" ></path></g></svg>