<?xml version="1.0" standalone="no"?>
<!DOCTYPE svg PUBLIC "-//W3C//DTD SVG 20010904//EN"
 "http://www.w3.org/TR/2001/REC-SVG-20010904/DTD/svg10.dtd">
<svg version="1.0" xmlns="http://www.w3.org/2000/svg"
 width="1024.000000pt" height="1024.000000pt" viewBox="0 0 1024.000000 1024.000000"
 preserveAspectRatio="xMidYMid meet">
<metadata>
Created by potrace 1.11, written by Peter Selinger 2001-2013
</metadata>
<g transform="translate(0.000000,1024.000000) scale(0.100000,-0.100000)"
fill="#000000" stroke="none">
<path d="M4965 9655 c-22 -8 -755 -408 -1630 -888 -1176 -647 -1601 -885
-1631 -916 -23 -22 -52 -62 -65 -88 l-24 -48 0 -1430 c0 -1524 -1 -1495 51
-1830 220 -1435 1102 -2716 2373 -3445 172 -99 340 -181 671 -327 l245 -108
105 0 105 0 300 129 c165 71 372 164 460 206 1079 524 1934 1449 2373 2567
183 466 286 924 322 1428 8 110 10 575 8 1485 l-3 1325 -28 53 c-15 29 -45 69
-66 90 -27 26 -533 300 -1671 907 -898 479 -1654 878 -1679 887 -56 21 -161
22 -216 3z m672 -2889 l28 -24 5 -534 5 -533 533 -5 534 -5 24 -28 24 -28 0
-489 0 -489 -24 -28 -24 -28 -534 -5 -533 -5 -5 -533 -5 -534 -28 -24 -28 -24
-489 0 -489 0 -28 24 -28 24 -5 534 -5 533 -533 5 -534 5 -24 28 -24 28 0 489
0 489 24 28 24 28 534 5 533 5 5 533 5 534 28 24 28 24 489 0 489 0 28 -24z"/>
</g>
</svg>
